<?xml version="1.0" encoding="iso-8859-1"?>
<!-- Generator: Adobe Illustrator 24.0.2, SVG Export Plug-In . SVG Version: 6.00 Build 0)  -->
<svg version="1.1" id="Layer_1" xmlns="http://www.w3.org/2000/svg" xmlns:xlink="http://www.w3.org/1999/xlink" x="0px" y="0px"
	 viewBox="0 0 50 50" style="enable-background:new 0 0 50 50;" xml:space="preserve">
<path style="fill:none;stroke:#000000;stroke-width:2;stroke-miterlimit:10;" d="M36,44.99H14c-4.971,0-9-4.029-9-9v-22
	c0-4.971,4.029-9,9-9h22c4.971,0,9,4.029,9,9v22C45,40.961,40.971,44.99,36,44.99z"/>
<path d="M30.229,12.808c-0.413,0.383-1.044,0.383-1.457,0C25.26,9.559,20,11.369,20,16.155c0,4.158,3.264,8.786,9.007,11.728
	c0.305,0.156,0.68,0.156,0.986,0C35.736,24.942,39,20.314,39,16.155C39,11.369,33.74,9.559,30.229,12.808z"/>
</svg>
